<?xml version="1.0" encoding="UTF-8" standalone="no"?>
<!-- Created with Inkscape (http://www.inkscape.org/) -->

<svg
   version="1.1"
   id="svg2"
   xml:space="preserve"
   width="101.33333"
   height="78.666664"
   viewBox="0 0 101.33333 78.666664"
   sodipodi:docname="ignou-logo.eps"
   xmlns:inkscape="http://www.inkscape.org/namespaces/inkscape"
   xmlns:sodipodi="http://sodipodi.sourceforge.net/DTD/sodipodi-0.dtd"
   xmlns="http://www.w3.org/2000/svg"
   xmlns:svg="http://www.w3.org/2000/svg"><defs
     id="defs6" /><sodipodi:namedview
     id="namedview4"
     pagecolor="#ffffff"
     bordercolor="#666666"
     borderopacity="1.0"
     inkscape:pageshadow="2"
     inkscape:pageopacity="0.0"
     inkscape:pagecheckerboard="0" /><g
     id="g8"
     inkscape:groupmode="layer"
     inkscape:label="ink_ext_XXXXXX"
     transform="matrix(1.3333333,0,0,-1.3333333,0,78.666667)"><g
       id="g10"
       transform="scale(0.1)"><path
         d="m 521.887,227.039 c 4.14,0.25 9.511,0.145 13.715,0.035 4.015,-0.105 8.265,-1.254 8.218,-5.328 -0.05,-4.203 -4.414,-5.277 -8.527,-5.449 -3.598,-0.152 -10.035,-0.332 -13.477,0.043 z m -6.824,-32.344 6.75,-0.004 0.015,16.125 c 4.485,0.274 10.086,0.676 13.168,-1.992 2.281,-1.969 7.094,-8.453 9.195,-11.226 2.805,-3.696 0.512,-2.801 10.668,-2.907 -1.07,2.071 -10.007,13.524 -13.05,15.825 l -1.254,1.175 c 13.023,2.5 12.199,14.254 5.597,18.512 -5.004,3.223 -23.797,2.168 -31.082,2.121 l -0.007,-37.629"
         style="fill:#231f20;fill-opacity:1;fill-rule:evenodd;stroke:none"
         id="path12" /><path
         d="m 373.34,194.703 6.519,0.004 0.02,27.383 21.934,-27.395 6.75,-0.004 0.007,37.637 -6.519,0.004 -0.016,-27.5 c -0.113,0.09 -2.172,2.57 -2.57,3.07 -1.098,1.36 -1.754,2.211 -2.809,3.504 l -13.863,17.387 c -3.551,4.414 -1.258,3.434 -9.445,3.547 l -0.008,-37.637"
         style="fill:#231f20;fill-opacity:1;fill-rule:evenodd;stroke:none"
         id="path14" /><path
         d="m 508.004,200.039 c -3.895,0.059 -24.781,-0.402 -26.641,0.25 l -0.058,11.043 c 2.199,0.652 20.183,0.176 23.972,0.207 l -0.14,5.379 -23.719,-0.031 -0.008,9.914 25.625,0.019 0.004,0.332 v 5.164 l -32.406,0.012 -0.004,-37.59 33.418,-0.05 -0.043,5.351"
         style="fill:#231f20;fill-opacity:1;fill-rule:evenodd;stroke:none"
         id="path16" /><path
         d="m 556.859,207.586 c -0.367,-15.836 26.055,-16.602 32.938,-8.508 2.918,3.434 3.687,8.227 0.555,12.231 -4.926,6.289 -21.926,5.367 -24.735,9.527 -1.676,2.488 0.535,4.609 2.094,5.437 1.922,1.032 4.769,1.239 7.25,1.2 9.566,-0.157 8.668,-4.891 9.906,-6.981 l 6.231,0.43 c -0.09,10.125 -11.645,13.469 -21.801,11.582 -4.945,-0.918 -8.641,-3.086 -10.184,-6.945 -2.164,-5.403 1.219,-9.254 4.602,-11.145 6.797,-3.793 27.035,-3.559 21.379,-11.527 -2.117,-2.977 -8.551,-3.817 -13.305,-2.946 -8.672,1.586 -7.836,6.352 -8.863,8.079 l -6.067,-0.434"
         style="fill:#231f20;fill-opacity:1;fill-rule:evenodd;stroke:none"
         id="path18" /><path
         d="m 329.703,232.328 c -0.094,-6.82 -0.715,-21.605 0.531,-27.547 1.657,-7.929 8.266,-10.738 17.266,-10.699 8.965,0.035 15.305,3.188 16.875,11.059 0.836,4.226 0.508,21.703 0.48,27.179 l -6.765,-0.074 c -0.063,-7.199 0.09,-14.43 -0.012,-21.621 -0.121,-8.289 -2.476,-10.898 -10.879,-10.977 -8.164,-0.074 -10.683,3.094 -10.746,10.973 -0.058,7.231 0.043,14.477 -0.008,21.711 l -6.742,-0.004"
         style="fill:#231f20;fill-opacity:1;fill-rule:evenodd;stroke:none"
         id="path20" /><path
         d="m 502.934,283.715 c 8.906,1.18 16.207,-5.504 17.171,-13.07 1.204,-9.426 -5.171,-16.368 -13.238,-17.465 -9.152,-1.239 -16.574,5.238 -17.5,13.035 -1.144,9.609 5.352,16.41 13.567,17.5 z m -1.27,4.848 c -10.535,-1.571 -19.066,-10.75 -17.473,-22.981 1.364,-10.488 11.286,-18.941 23.676,-17.238 10.344,1.418 19.078,10.816 17.379,23.105 -1.433,10.356 -11.332,18.93 -23.582,17.114"
         style="fill:#231f20;fill-opacity:1;fill-rule:evenodd;stroke:none"
         id="path22" /><path
         d="m 346.246,249.082 5.094,0.012 -0.004,18.066 18.129,0.012 0.015,-18.043 5.071,-0.059 0.019,38.758 h -5.09 v -15.699 l -18.132,-0.024 -0.016,15.661 -5.074,0.082 -0.012,-38.766"
         style="fill:#231f20;fill-opacity:1;fill-rule:evenodd;stroke:none"
         id="path24" /><path
         d="m 470.629,232.309 -6.551,0.019 c -0.894,-0.25 -9.668,-20.883 -10.715,-23.312 -0.672,-1.559 -2.699,-6.692 -3.406,-7.703 -0.117,0.148 -12.262,27.867 -13.187,31.015 l -7.457,-0.043 17.289,-37.594 6.582,0.055 17.445,37.563"
         style="fill:#231f20;fill-opacity:1;fill-rule:evenodd;stroke:none"
         id="path26" /><path
         d="m 457.215,249.125 22.945,-0.055 0.024,4.946 -17.758,0.011 -0.149,13.418 17.875,0.075 0.028,4.816 -17.891,0.086 0.004,10.418 17.887,0.039 0.175,4.949 -23.136,0.008 -0.004,-38.711"
         style="fill:#231f20;fill-opacity:1;fill-rule:evenodd;stroke:none"
         id="path28" /><path
         d="m 382.602,249.082 22.953,-0.008 -0.043,4.973 -17.828,-0.012 -0.008,13.43 17.801,0.004 0.062,4.941 -17.859,0.004 -0.004,10.449 17.937,0.016 0.121,4.883 -23.105,0.078 -0.027,-38.758"
         style="fill:#231f20;fill-opacity:1;fill-rule:evenodd;stroke:none"
         id="path30" /><path
         d="m 587.832,286.039 0.008,-36.957 22.937,-0.008 0.02,4.946 -17.715,0.003 c -0.484,1.915 -0.207,10.883 -0.16,13.438 l 17.867,0.023 0.008,4.805 -17.883,0.133 -0.008,10.441 17.93,0.012 0.133,4.91 -23.137,0.055 v -1.801"
         style="fill:#231f20;fill-opacity:1;fill-rule:evenodd;stroke:none"
         id="path32" /><path
         d="m 536.953,282.875 c 5.676,0.465 14.895,1.117 14.746,-5.82 -0.14,-6.594 -8.691,-6.09 -14.816,-5.575 z m -5.144,-33.672 5.07,-0.144 v 17.351 c 5.148,0.688 18.586,-1.879 19.922,9.192 0.59,4.855 -1.559,8.382 -4.36,10.168 -4.351,2.781 -14.738,2.144 -20.632,2.007 v -38.574"
         style="fill:#231f20;fill-opacity:1;fill-rule:evenodd;stroke:none"
         id="path34" /><path
         d="m 430.879,282.879 c 6.086,0.488 14.906,1.043 14.73,-5.856 -0.168,-6.566 -8.722,-6.097 -14.804,-5.543 z m -5.152,-33.688 5.05,-0.113 0.024,17.352 c 5.59,0.578 18.836,-1.758 19.957,9.441 0.476,4.785 -1.637,8.262 -4.543,10.031 -4.113,2.504 -14.789,2.098 -20.488,1.868 v -38.579"
         style="fill:#231f20;fill-opacity:1;fill-rule:evenodd;stroke:none"
         id="path36" /><path
         d="M 635.039,259.297 630.859,257 c 1.84,-5.551 8.707,-10.473 15.754,-8.375 5.813,1.734 10.43,8.488 6.461,15.496 -2.851,5.039 -10.039,8.492 -13.051,11.883 -2.621,2.949 -1.503,7.027 2.282,7.566 4.394,0.621 5.718,-2.718 7.758,-4.617 0.679,0.297 3.316,2.215 3.933,2.883 -0.808,1.953 -4.047,5.039 -6.316,6.031 -6.293,2.742 -14.446,-0.965 -14.262,-8.742 0.242,-10.23 17.375,-13.191 15.637,-21.527 -0.727,-3.485 -6.36,-7.285 -11.364,-1.95 -1.199,1.274 -1.566,2.489 -2.652,3.649"
         style="fill:#231f20;fill-opacity:1;fill-rule:evenodd;stroke:none"
         id="path38" /><path
         d="m 319.887,282.98 8.492,-0.07 0.051,-33.832 5.129,0.031 0.011,33.805 8.328,0.008 0.196,4.891 -22.203,0.023 -0.004,-4.856"
         style="fill:#231f20;fill-opacity:1;fill-rule:evenodd;stroke:none"
         id="path40" /><path
         d="m 563.27,249.133 19.75,-0.059 0.003,4.824 -14.601,0.055 -0.055,33.867 -5.078,0.004 -0.019,-38.691"
         style="fill:#231f20;fill-opacity:1;fill-rule:evenodd;stroke:none"
         id="path42" /><path
         d="m 600.211,194.688 6.769,0.128 -0.003,37.43 -1.684,0.082 -3.906,0.012 -1.176,-0.043 v -37.609"
         style="fill:#231f20;fill-opacity:1;fill-rule:evenodd;stroke:none"
         id="path44" /><path
         d="m 418.184,194.699 6.765,0.071 -0.008,37.55 -6.765,-0.086 0.008,-37.535"
         style="fill:#231f20;fill-opacity:1;fill-rule:evenodd;stroke:none"
         id="path46" /><path
         d="m 618.18,280.527 2.047,-0.019 c 0.187,-2.266 -1.133,-3.75 -1.711,-5.598 l 2.953,-1.539 c 2.906,4.391 2.633,9.559 2.672,15.301 l -5.95,0.113 -0.011,-8.258"
         style="fill:#231f20;fill-opacity:1;fill-rule:evenodd;stroke:none"
         id="path48" /><path
         d="m 508.004,200.039 c -1.238,0.754 -25.051,0.324 -26.363,0.328 l -0.008,10.832 23.789,0.02 c 0.324,1.222 0.211,1.851 0.215,3.011 0.019,3.59 -0.004,2.293 -0.5,2.688 l 0.14,-5.379 c -3.789,-0.031 -21.773,0.445 -23.972,-0.207 l 0.058,-11.043 c 1.86,-0.652 22.746,-0.191 26.641,-0.25"
         style="fill:#231f20;fill-opacity:1;fill-rule:evenodd;stroke:none"
         id="path50" /><path
         d="m 287.59,393.121 v -102.41 c 0,-59.617 -48.637,-108.398 -108.082,-108.398 v 0 c -59.445,0 -108.0822,48.777 -108.0822,108.398 v 100.32 h 17.6133 v -100.32 c 0,-49.77 40.6249,-90.781 90.4689,-90.781 49.844,0 90.469,41.011 90.469,90.781 v 102.41 z m -95.887,-11.133 c 39.41,-6.547 69.567,-42.886 69.567,-86.746 0,-48.488 -36.864,-87.793 -82.336,-87.793 -45.473,0 -82.3363,39.305 -82.3363,87.793 0,43.656 29.8823,79.863 69.0233,86.649 v 3.683 h 26.082 z m 0,-17.543 v -9.422 h -3.476 v -19.128 h -19.125 v 19.128 h -3.481 v 9.313 c -30.582,-6.504 -53.609,-34.965 -53.609,-69.094 0,-38.929 29.961,-70.488 66.922,-70.488 36.961,0 66.925,31.559 66.925,70.488 0,34.328 -23.304,62.922 -54.156,69.203 z m -41.883,-129.769 13.41,2.488 0.551,6.086 c 57.098,-21.316 82.25,72.145 27.379,72.18 v -16.453 c 32.746,-6.211 11.781,-55.024 -29.176,-35.813 0.079,4.203 -1.226,7.82 -3.734,10.922 -7.676,7.625 -16.238,0.902 -17.008,-9.539 1.293,-9.004 4.567,-15.426 9.543,-19.637 0,0 -0.832,-10.094 -0.965,-10.234 z m 19.45,80.328 h 18.273 v -30.117 h -10.379 c -49.086,0 -58.293,63.722 -14.766,68.129 v -15.938 c -18.941,-2.137 -16.925,-26.808 6.872,-34.793 v 12.719"
         style="fill:#00adef;fill-opacity:1;fill-rule:evenodd;stroke:none"
         id="path52" /><path
         d="m 355.75,352.441 c -1.812,12.957 6.828,23.028 17.523,24.692 12.395,1.926 21.844,-8.156 23.235,-18.906 1.543,-11.887 -6.723,-22.973 -17.262,-24.563 -12.933,-1.945 -21.98,7.934 -23.496,18.777 z m -34.609,-31.656 19.019,-0.078 0.172,26.566 c 3.383,-13.011 10.391,-22.347 21.586,-26.691 6.18,-2.398 13.594,-3.191 20.687,-1.426 3.118,0.774 6.098,2.032 8.477,3.52 3.316,2.07 6.078,5.062 6.973,5.461 -0.024,-10.035 -4.02,-19.356 -13.563,-22.899 -9.683,-3.59 -19.781,-0.476 -25.203,9.039 l -15.363,0.024 c 1.273,-5.563 5.765,-12.34 8.73,-15.293 3.77,-3.766 8.965,-6.918 15.953,-8.367 15.86,-3.282 29.055,2.824 35.579,11.425 8.792,11.582 8.3,23.094 8.3,40.161 l -0.008,48.457 -14.257,0.039 -0.016,-8.434 c -2.059,1.399 -2.672,2.863 -6.516,5.332 -14.062,9.008 -33.546,5.375 -43.492,-7.336 -1.941,-2.484 -3.113,-4.23 -4.656,-7.359 -2.117,-4.293 -2.348,-7.438 -3.207,-9.168 l -0.023,30.672 -19.118,0.015 -0.054,-73.66"
         style="fill:#00adef;fill-opacity:1;fill-rule:evenodd;stroke:none"
         id="path54" /><path
         d="m 570.461,392.461 -15.445,0.035 -0.02,-31.34 c 0,-9.535 -0.484,-20.636 3.434,-28.222 8.418,-16.297 30.062,-16.536 38.254,-6.129 0.48,0.605 1.152,1.679 1.89,2.168 l 0.035,-7.785 15.125,-0.016 -0.191,71.351 -14.656,-0.003 c -0.496,-2.52 0.008,-29.172 -0.203,-34.973 -0.407,-10.934 -2.579,-21.281 -13.809,-21.57 -12.633,-0.317 -13.805,9.601 -14.312,21.089 -0.512,11.668 0.343,23.735 -0.102,35.395"
         style="fill:#00adef;fill-opacity:1;fill-rule:evenodd;stroke:none"
         id="path56" /><path
         d="m 432.555,384.016 -0.102,7.687 -15.133,0.063 -0.031,-71.301 14.816,-0.051 c 0.649,3.113 -0.085,28.449 0.262,34.945 0.59,10.989 2.246,21.344 13.981,21.571 12.343,0.238 13.816,-9.731 14.14,-21.184 l 0.157,-35.285 15.312,-0.043 0.117,31.121 c 0,9.707 0.481,20.024 -3.246,27.973 -7.375,15.738 -27.91,16.898 -36.41,8.695 -0.848,-0.816 -1.148,-1.156 -1.941,-1.957 -0.832,-0.832 -0.864,-1.398 -1.922,-2.234"
         style="fill:#00adef;fill-opacity:1;fill-rule:evenodd;stroke:none"
         id="path58" /><path
         d="m 303.168,170.664 h 5.117 c 0.606,3.188 0.156,11.859 0.156,15.621 v 233.16 h -5.449 V 232.859 c 0,-4.109 -0.359,-59.675 0.176,-62.195"
         style="fill:#292423;fill-opacity:1;fill-rule:evenodd;stroke:none"
         id="path60" /><path
         d="m 690.023,231.961 v 0.332 c -9.57,0.047 -7.097,1.176 -11.121,-3.945 l -9.445,-12.211 c -0.047,-0.051 -0.125,-0.114 -0.172,-0.16 l -0.383,-0.313 c -0.871,1.742 -11.664,15.957 -12.828,16.668 l -43.242,-0.004 -0.004,-5.496 14.277,-0.031 0.032,-32.106 6.738,-0.004 0.023,32.059 14.352,0.07 0.02,4.914 c 1.031,-0.82 13.3,-16.515 15.035,-18.687 1.5,-1.875 2.097,-1.781 2.066,-4.817 -0.039,-4.496 -0.031,-9.035 0.004,-13.531 l 6.73,-0.008 c 0.098,4.582 0.028,9.262 0.004,13.852 -0.011,2.957 2.707,5.238 5.317,8.371 l 12.597,15.047"
         style="fill:#231f20;fill-opacity:1;fill-rule:evenodd;stroke:none"
         id="path62" /><path
         d="m 322.148,397.098 19.133,-0.024 0.008,17.821 -19.051,0.046 -0.09,-17.843"
         style="fill:#00adef;fill-opacity:1;fill-rule:evenodd;stroke:none"
         id="path64" /><path
         d="m 516.691,374.883 c 11.059,0 20.024,-8.918 20.024,-19.926 0,-11.004 -8.965,-19.926 -20.024,-19.926 -11.058,0 -20.019,8.922 -20.019,19.926 0,11.008 8.961,19.926 20.019,19.926 z m 0,15.203 c 20.563,0 37.227,-15.727 37.227,-35.129 0,-19.402 -16.664,-35.129 -37.227,-35.129 -20.558,0 -37.222,15.727 -37.222,35.129 0,19.402 16.664,35.129 37.222,35.129"
         style="fill:#00adef;fill-opacity:1;fill-rule:evenodd;stroke:none"
         id="path66" /></g></g></svg>
